#N canvas 414 48 1348 926 12;
#X declare -lib Gem;
#X obj 730 111 tgl 19 0 empty empty empty 0 -10 0 12 #fcfcfc #000000 #000000 0 1;
#X obj 725 161 metro 200;
#X text 42 21 MEDIA>MIDI>IACDRIVERS as input and output command-E to edit patch toggle on! connect!;
#X obj 723 189 bng 19 250 50 0 empty empty empty 0 -10 0 12 #fcfcfc #000000 #000000;
#X obj 303 641 makenote 100 200;
#X obj 327 703 noteout;
#X obj 338 218 f;
#X obj 338 242 + 1;
#X floatatom 335 277 5 0 0 0 - - - 0;
#X obj 336 307 % 5;
#X floatatom 335 339 4 0 0 0 - - - 0;
#X obj 334 372 sel 0 1 2 3 4, f 35;
#X obj 315 411 bng 19 250 50 0 empty empty empty 0 -10 0 12 #fcfcfc #000000 #000000;
#X obj 366 418 bng 19 250 50 0 empty empty empty 0 -10 0 12 #fcfcfc #000000 #000000;
#X obj 413 415 bng 19 250 50 0 empty empty empty 0 -10 0 12 #fcfcfc #000000 #000000;
#X obj 455 415 bng 19 250 50 0 empty empty empty 0 -10 0 12 #fcfcfc #000000 #000000;
#X obj 512 411 bng 19 250 50 0 empty empty empty 0 -10 0 12 #fcfcfc #000000 #000000;
#X obj 92 514 f;
#X obj 300 551 +;
#X msg 326 448 0;
#X msg 377 451 1;
#X msg 425 454 3;
#X msg 478 452 6;
#X msg 532 453 11;
#X floatatom 156 496 5 0 0 0 - - - 0;
#X obj 157 425 random 12;
#X obj 157 449 + 36;
#X obj 148 306 moses 1;
#X floatatom 176 281 5 0 0 0 - - - 0;
#X obj 158 364 bng 19 250 50 0 empty empty empty 0 -10 0 12 #fcfcfc #000000 #000000;
#X obj 160 237 random 5;
#X obj 723 213 s pulse;
#X obj 338 186 r pulse;
#X obj 91 405 r pulse;
#X obj 252 422 s zero;
#X obj 155 201 r zero;
#X obj 728 260 bng 100 250 50 0 empty empty empty 0 -10 0 12 #ffffff #000000 #000000;
#X obj 728 365;
#X obj 728 365 s randomize;
#X obj 737 413 r randomize;
#X obj 739 462 random 150;
#X obj 739 501 + 150;
#X floatatom 739 525 5 0 0 0 - - - 0;
#X obj 741 562 s pulseLength;
#X obj 761 119 r pulseLength;
#X obj 414 589 r pulseLength;
#X obj 930 288 gemhead;
#X obj 930 320 part_head;
#X obj 930 456 part_draw;
#X text 1040 386 set the number per frame;
#X text 1054 418 set the age to kill at;
#X text 1059 238 the velocity domain;
#X text 1058 253 a sphere at 0 \, 0.2 \, 0;
#X text 1059 272 radius = 0.3;
#X msg 1034 298 0 0.2 0 0.3;
#X msg 1121 297 0.2 0 0 0.3;
#X obj 930 356 part_velocity sphere 0 0.2 0 0.3;
#X obj 930 389 part_source 20;
#X obj 930 420 part_killold 50;
#N canvas 694 375 339 242 Gem.init 0;
#X obj 118 46 loadbang;
#X msg 118 81 reset;
#X obj 118 113 outlet;
#X connect 0 0 1 0;
#X connect 1 0 2 0;
#X restore 917 120 pd Gem.init;
#N canvas 340 107 682 322 gemwin 0;
#X obj 102 122 tgl 15 0 \$0-gemstart \$0-gemstart empty 17 7 0 10 #fcfcfc #000000 #000000 0 1;
#X obj 102 161 r \$0-gemstart;
#X obj 102 182 select 1 0;
#X msg 102 214 create \, 1;
#X msg 177 215 destroy;
#X obj 102 239 t a;
#X obj 318 54 inlet;
#X obj 318 255 gemwin;
#X obj 318 100 t a a;
#X obj 318 287 outlet;
#X obj 350 128 route create destroy;
#X obj 350 150 t b;
#X msg 350 172 1;
#X obj 390 150 t b;
#X msg 390 172 0;
#X obj 350 195 t f;
#X msg 350 219 set \$1;
#X text 118 122 rendering;
#X connect 1 0 2 0;
#X connect 2 0 3 0;
#X connect 2 1 4 0;
#X connect 3 0 5 0;
#X connect 4 0 5 0;
#X connect 5 0 8 0;
#X connect 6 0 8 0;
#X connect 7 0 9 0;
#X connect 8 0 7 0;
#X connect 8 1 10 0;
#X connect 10 0 11 0;
#X connect 10 1 13 0;
#X connect 11 0 12 0;
#X connect 12 0 15 0;
#X connect 13 0 14 0;
#X connect 14 0 15 0;
#X connect 15 0 16 0;
#X connect 16 0 0 0;
#X coords 0 -1 1 1 85 40 1 100 100;
#X restore 894 186 pd gemwin;
#X obj 1229 128 declare -lib Gem;
#X obj 50 50 gemwin;
#X msg 50 70 create;
#X msg 50 90 destroy;
#X obj 150 50 gemhead;
#X obj 150 90 translateXYZ 0 0 0;
#X obj 150 130 rotateXYZ;
#X obj 150 170 circle 1;
#X obj 296 75 t b f;
#X obj 313 121 + 1;
#X obj 240 167 % 360;
#X connect 0 0 1 0;
#X connect 1 0 3 0;
#X connect 3 0 31 0;
#X connect 4 0 5 0;
#X connect 4 1 5 1;
#X connect 6 0 7 0;
#X connect 7 0 6 1;
#X connect 7 0 8 0;
#X connect 8 0 9 0;
#X connect 9 0 10 0;
#X connect 10 0 11 0;
#X connect 11 0 12 0;
#X connect 11 0 34 0;
#X connect 11 1 13 0;
#X connect 11 2 14 0;
#X connect 11 3 15 0;
#X connect 11 4 16 0;
#X connect 12 0 19 0;
#X connect 13 0 20 0;
#X connect 14 0 21 0;
#X connect 15 0 22 0;
#X connect 16 0 23 0;
#X connect 17 0 18 0;
#X connect 18 0 4 0;
#X connect 19 0 18 1;
#X connect 20 0 18 1;
#X connect 21 0 18 1;
#X connect 22 0 18 1;
#X connect 23 0 18 1;
#X connect 24 0 17 1;
#X connect 25 0 26 0;
#X connect 26 0 24 0;
#X connect 27 0 29 0;
#X connect 29 0 25 0;
#X connect 30 0 27 0;
#X connect 30 0 28 0;
#X connect 32 0 6 0;
#X connect 33 0 17 0;
#X connect 35 0 30 0;
#X connect 36 0 38 0;
#X connect 39 0 40 0;
#X connect 40 0 41 0;
#X connect 41 0 42 0;
#X connect 42 0 43 0;
#X connect 44 0 1 1;
#X connect 45 0 4 2;
#X connect 46 0 47 0;
#X connect 47 0 56 0;
#X connect 54 0 56 2;
#X connect 55 0 56 2;
#X connect 56 0 57 0;
#X connect 57 0 58 0;
#X connect 58 0 48 0;
#X connect 59 0 60 0;
