#N canvas -3 103 935 847 12;
#X obj 726 123 tgl 19 0 empty empty empty 0 -10 0 12 #fcfcfc #000000 #000000 0 1;
#X obj 725 161 metro 200;
#X text 42 21 MEDIA>MIDI>IACDRIVERS as input and output command-E to edit patch toggle on! connect!;
#X obj 723 189 bng 19 250 50 0 empty empty empty 0 -10 0 12 #fcfcfc #000000 #000000;
#X obj 303 641 makenote 100 200;
#X obj 327 703 noteout;
#X obj 338 218 f;
#X obj 338 242 + 1;
#X floatatom 335 277 5 0 0 0 - - - 0;
#X obj 336 307 % 5;
#X floatatom 335 339 4 0 0 0 - - - 0;
#X obj 334 372 sel 0 1 2 3 4, f 35;
#X obj 315 411 bng 19 250 50 0 empty empty empty 0 -10 0 12 #fcfcfc #000000 #000000;
#X obj 366 418 bng 19 250 50 0 empty empty empty 0 -10 0 12 #fcfcfc #000000 #000000;
#X obj 413 415 bng 19 250 50 0 empty empty empty 0 -10 0 12 #fcfcfc #000000 #000000;
#X obj 455 415 bng 19 250 50 0 empty empty empty 0 -10 0 12 #fcfcfc #000000 #000000;
#X obj 512 411 bng 19 250 50 0 empty empty empty 0 -10 0 12 #fcfcfc #000000 #000000;
#X obj 92 514 f;
#X obj 300 551 +;
#X msg 326 448 0;
#X msg 377 451 1;
#X msg 425 454 3;
#X msg 478 452 6;
#X msg 532 453 11;
#X floatatom 156 496 5 0 0 0 - - - 0;
#X obj 157 425 random 12;
#X obj 157 449 + 36;
#X obj 148 306 moses 1;
#X floatatom 176 281 5 0 0 0 - - - 0;
#X obj 158 364 bng 19 250 50 0 empty empty empty 0 -10 0 12 #fcfcfc #000000 #000000;
#X obj 160 237 random 5;
#X obj 723 213 s pulse;
#X obj 338 186 r pulse;
#X obj 91 405 r pulse;
#X obj 252 422 s zero;
#X obj 155 201 r zero;
#X obj 728 260 bng 100 250 50 0 empty empty empty 0 -10 0 12 #ffffff #000000 #000000;
#X obj 728 365;
#X obj 728 365 s randomize;
#X obj 737 413 r randomize;
#X obj 739 462 random 150;
#X obj 739 501 + 150;
#X floatatom 739 525 5 0 0 0 - - - 0;
#X obj 741 562 s pulseLength;
#X obj 761 119 r pulseLength;
#X obj 414 589 r pulseLength;
#X connect 0 0 1 0;
#X connect 1 0 3 0;
#X connect 3 0 31 0;
#X connect 4 0 5 0;
#X connect 4 1 5 1;
#X connect 6 0 7 0;
#X connect 7 0 6 1;
#X connect 7 0 8 0;
#X connect 8 0 9 0;
#X connect 9 0 10 0;
#X connect 10 0 11 0;
#X connect 11 0 12 0;
#X connect 11 0 34 0;
#X connect 11 1 13 0;
#X connect 11 2 14 0;
#X connect 11 3 15 0;
#X connect 11 4 16 0;
#X connect 12 0 19 0;
#X connect 13 0 20 0;
#X connect 14 0 21 0;
#X connect 15 0 22 0;
#X connect 16 0 23 0;
#X connect 17 0 18 0;
#X connect 18 0 4 0;
#X connect 19 0 18 1;
#X connect 20 0 18 1;
#X connect 21 0 18 1;
#X connect 22 0 18 1;
#X connect 23 0 18 1;
#X connect 24 0 17 1;
#X connect 25 0 26 0;
#X connect 26 0 24 0;
#X connect 27 0 29 0;
#X connect 29 0 25 0;
#X connect 30 0 27 0;
#X connect 30 0 28 0;
#X connect 32 0 6 0;
#X connect 33 0 17 0;
#X connect 35 0 30 0;
#X connect 36 0 38 0;
#X connect 39 0 40 0;
#X connect 40 0 41 0;
#X connect 41 0 42 0;
#X connect 42 0 43 0;
#X connect 44 0 1 1;
#X connect 45 0 4 2;
